# xmcd
#
# Track frame offsets:
#	150
#	15819
#	40612
#	55768
#	69096
#	86522
#	108439
#	123942
#	138208
#	151625
#	168459
#
# Disc length: 2662 seconds
#
# Revision: 1
# Processed by: cddbd v1.5.2PL0 Copyright (c) Steve Scherf et al.
# Submitted via: audiograbber 1.83.01
#
DISCID=710a640b
DTITLE=The Danny Handley - Blues project
DYEAR=2010
DGENRE=R&B
TTITLE0=A lot of love
TTITLE1=Twenty year blues
TTITLE2=Going back to Memphis
TTITLE3=Red red rose
TTITLE4=How things can change
TTITLE5=Dog and bone
TTITLE6=It's too late
TTITLE7=Jimmy choo's
TTITLE8=Can't hold out
TTITLE9=Just for You
TTITLE10=Steamroller blues
EXTD=
EXTT0=
EXTT1=
EXTT2=
EXTT3=
EXTT4=
EXTT5=
EXTT6=
EXTT7=
EXTT8=
EXTT9=
EXTT10=
PLAYORDER=
